<?xml version="1.0" encoding="UTF-8" standalone="no"?><!DOCTYPE svg PUBLIC "-//W3C//DTD SVG 1.1//EN" "http://www.w3.org/Graphics/SVG/1.1/DTD/svg11.dtd"><svg width="100%" height="100%" viewBox="0 0 128 128" version="1.1" xmlns="http://www.w3.org/2000/svg" xmlns:xlink="http://www.w3.org/1999/xlink" xml:space="preserve" xmlns:serif="http://www.serif.com/" style="fill-rule:evenodd;clip-rule:evenodd;stroke-linecap:round;stroke-linejoin:round;stroke-miterlimit:1.5;"><path d="M128,14l-0,100c-0,7.727 -6.273,14 -14,14l-100,-0c-7.727,-0 -14,-6.273 -14,-14l0,-100c0,-7.727 6.273,-14 14,-14l100,0c7.727,0 14,6.273 14,14Z" style="fill:#252d45;"/><clipPath id="_clip1"><path id="S" d="M39.243,28.026l126.697,0l5.925,7.862l-100.121,0c-1.388,0 -2.628,0.868 -3.103,2.173c-0.474,1.305 -0.082,2.767 0.982,3.659c12.356,10.359 36.845,30.892 36.845,30.892c15.843,11.572 6.226,26.713 -13.053,26.713l-142.693,-0l-5.368,-7.862l114.585,-0c1.726,-0 3.268,-1.08 3.858,-2.702c0.59,-1.622 0.102,-3.439 -1.221,-4.548c-12.412,-10.407 -35.459,-29.997 -35.459,-29.997c-17.333,-14.532 -7.364,-26.19 12.126,-26.19Z"/></clipPath><g clip-path="url(#_clip1)"><g opacity="0.3"><path d="M39.243,28.026l126.697,0l5.925,7.862l-100.121,0c-1.388,0 -2.628,0.868 -3.103,2.173c-0.474,1.305 -0.082,2.767 0.982,3.659c12.356,10.359 36.845,30.892 36.845,30.892c15.843,11.572 6.226,26.713 -13.053,26.713l-142.693,-0l-5.368,-7.862l114.585,-0c1.726,-0 3.268,-1.08 3.858,-2.702c0.59,-1.622 0.102,-3.439 -1.221,-4.548c-12.412,-10.407 -35.459,-29.997 -35.459,-29.997c-17.333,-14.532 -7.364,-26.19 12.126,-26.19Z" style="fill:none;"/><clipPath id="_clip2"><path d="M39.243,28.026l126.697,0l5.925,7.862l-100.121,0c-1.388,0 -2.628,0.868 -3.103,2.173c-0.474,1.305 -0.082,2.767 0.982,3.659c12.356,10.359 36.845,30.892 36.845,30.892c15.843,11.572 6.226,26.713 -13.053,26.713l-142.693,-0l-5.368,-7.862l114.585,-0c1.726,-0 3.268,-1.08 3.858,-2.702c0.59,-1.622 0.102,-3.439 -1.221,-4.548c-12.412,-10.407 -35.459,-29.997 -35.459,-29.997c-17.333,-14.532 -7.364,-26.19 12.126,-26.19Z"/></clipPath><g clip-path="url(#_clip2)"><g id="waves"><path d="M-42.048,15.487l22.626,8.935l22.47,-8.935l23.899,9.893l25.623,-9.893l24.488,11.169l23.79,-11.169l26.763,10.531l19.577,-10.531" style="fill:none;stroke:#0d0d0d;stroke-width:12.5px;"/><path d="M-42.048,39.886l22.626,8.935l22.47,-8.935l23.899,9.893l25.623,-9.893l24.488,11.169l23.79,-11.169l26.763,10.531l19.577,-10.531" style="fill:none;stroke:#0d0d0d;stroke-width:12.5px;"/><path d="M-42.048,64.285l22.626,8.935l22.47,-8.935l23.899,9.893l25.623,-9.893l24.488,11.169l23.79,-11.169l26.763,10.531l19.577,-10.531" style="fill:none;stroke:#0d0d0d;stroke-width:12.5px;"/><path d="M-42.048,88.684l22.626,8.935l22.47,-8.935l23.899,9.893l25.623,-9.893l24.488,11.169l23.79,-11.169l26.763,10.531l19.577,-10.531" style="fill:none;stroke:#0d0d0d;stroke-width:12.5px;"/><path d="M-42.048,113.083l22.626,8.935l22.47,-8.935l23.899,9.892l25.623,-9.892l24.488,11.169l23.79,-11.169l26.763,10.531l19.577,-10.531" style="fill:none;stroke:#0d0d0d;stroke-width:12.5px;"/><path d="M-42.048,10.356l22.626,8.936l22.47,-8.936l23.899,9.893l25.623,-9.893l24.488,11.17l23.79,-11.17l26.763,10.531l19.577,-10.531" style="fill:none;stroke:#0d0d0d;stroke-width:12.5px;"/><path d="M-42.048,34.755l22.626,8.936l22.47,-8.936l23.899,9.893l25.623,-9.893l24.488,11.169l23.79,-11.169l26.763,10.531l19.577,-10.531" style="fill:none;stroke:#0d0d0d;stroke-width:12.5px;"/><path d="M-42.048,59.154l22.626,8.936l22.47,-8.936l23.899,9.893l25.623,-9.893l24.488,11.169l23.79,-11.169l26.763,10.531l19.577,-10.531" style="fill:none;stroke:#0d0d0d;stroke-width:12.5px;"/><path d="M-42.048,83.553l22.626,8.935l22.47,-8.935l23.899,9.893l25.623,-9.893l24.488,11.169l23.79,-11.169l26.763,10.531l19.577,-10.531" style="fill:none;stroke:#0d0d0d;stroke-width:12.5px;"/><path d="M-42.048,107.952l22.626,8.935l22.47,-8.935l23.899,9.893l25.623,-9.893l24.488,11.169l23.79,-11.169l26.763,10.531l19.577,-10.531" style="fill:none;stroke:#0d0d0d;stroke-width:12.5px;"/><path d="M-42.048,5.226l22.626,8.935l22.47,-8.935l23.899,9.892l25.623,-9.892l24.488,11.169l23.79,-11.169l26.763,10.531l19.577,-10.531" style="fill:none;stroke:#0d0d0d;stroke-width:12.5px;"/><path d="M-42.048,29.625l22.626,8.935l22.47,-8.935l23.899,9.892l25.623,-9.892l24.488,11.169l23.79,-11.169l26.763,10.53l19.577,-10.53" style="fill:none;stroke:#0d0d0d;stroke-width:12.5px;"/><path d="M-42.048,54.024l22.626,8.935l22.47,-8.935l23.899,9.892l25.623,-9.892l24.488,11.169l23.79,-11.169l26.763,10.53l19.577,-10.53" style="fill:none;stroke:#0d0d0d;stroke-width:12.5px;"/><path d="M-42.048,78.422l22.626,8.936l22.47,-8.936l23.899,9.893l25.623,-9.893l24.488,11.17l23.79,-11.17l26.763,10.531l19.577,-10.531" style="fill:none;stroke:#0d0d0d;stroke-width:12.5px;"/><path d="M-42.048,102.821l22.626,8.936l22.47,-8.936l23.899,9.893l25.623,-9.893l24.488,11.169l23.79,-11.169l26.763,10.531l19.577,-10.531" style="fill:none;stroke:#0d0d0d;stroke-width:12.5px;"/><path d="M-42.048,0.095l22.626,8.935l22.47,-8.935l23.899,9.893l25.623,-9.893l24.488,11.169l23.79,-11.169l26.763,10.531l19.577,-10.531" style="fill:none;stroke:#0d0d0d;stroke-width:12.5px;"/><path d="M-42.048,24.494l22.626,8.935l22.47,-8.935l23.899,9.893l25.623,-9.893l24.488,11.169l23.79,-11.169l26.763,10.531l19.577,-10.531" style="fill:none;stroke:#0d0d0d;stroke-width:12.5px;"/><path d="M-42.048,48.893l22.626,8.935l22.47,-8.935l23.899,9.892l25.623,-9.892l24.488,11.169l23.79,-11.169l26.763,10.531l19.577,-10.531" style="fill:none;stroke:#0d0d0d;stroke-width:12.5px;"/><path d="M-42.048,73.292l22.626,8.935l22.47,-8.935l23.899,9.892l25.623,-9.892l24.488,11.169l23.79,-11.169l26.763,10.531l19.577,-10.531" style="fill:none;stroke:#0d0d0d;stroke-width:12.5px;"/><path d="M-42.048,97.691l22.626,8.935l22.47,-8.935l23.899,9.892l25.623,-9.892l24.488,11.169l23.79,-11.169l26.763,10.53l19.577,-10.53" style="fill:none;stroke:#0d0d0d;stroke-width:12.5px;"/><path d="M-42.048,20.123l22.626,8.935l22.47,-8.935l23.899,9.893l25.623,-9.893l24.488,11.169l23.79,-11.169l26.763,10.531l19.577,-10.531" style="fill:none;stroke:#0d0d0d;stroke-width:12.5px;"/><path d="M-42.048,44.522l22.626,8.935l22.47,-8.935l23.899,9.893l25.623,-9.893l24.488,11.169l23.79,-11.169l26.763,10.531l19.577,-10.531" style="fill:none;stroke:#0d0d0d;stroke-width:12.5px;"/><path d="M-42.048,68.921l22.626,8.935l22.47,-8.935l23.899,9.892l25.623,-9.892l24.488,11.169l23.79,-11.169l26.763,10.531l19.577,-10.531" style="fill:none;stroke:#0d0d0d;stroke-width:12.5px;"/><path d="M-42.048,93.32l22.626,8.935l22.47,-8.935l23.899,9.892l25.623,-9.892l24.488,11.169l23.79,-11.169l26.763,10.531l19.577,-10.531" style="fill:none;stroke:#0d0d0d;stroke-width:12.5px;"/><path d="M-42.048,117.719l22.626,8.935l22.47,-8.935l23.899,9.892l25.623,-9.892l24.488,11.169l23.79,-11.169l26.763,10.531l19.577,-10.531" style="fill:none;stroke:#0d0d0d;stroke-width:12.5px;"/></g></g></g></g><g><g opacity="0.9"><path d="M15.799,66.647c3.268,-0 5.402,-1.638 5.402,-4.209c-0,-2.85 -2.545,-3.607 -4.836,-4.187c-1.802,-0.48 -2.343,-0.681 -2.343,-1.388c-0,-0.454 0.644,-0.782 1.571,-0.782c1.133,0 2.523,0.429 3.731,1.161l1.517,-2.622c-1.466,-0.957 -3.342,-1.612 -5.248,-1.612c-3.139,-0 -5.222,1.763 -5.196,4.234c0.026,2.573 2.134,3.304 4.861,3.96c1.365,0.353 2.344,0.606 2.344,1.413c-0,0.58 -0.722,0.984 -1.726,0.984c-1.777,-0 -3.268,-0.631 -4.451,-1.463l-1.62,2.546c1.595,1.259 3.857,1.965 5.994,1.965Z" style="fill:#fff;fill-rule:nonzero;"/><path d="M22.412,57.258l-0,-0.593c-0,-1.932 1.566,-3.354 3.498,-3.354l0.255,-0l0,2.047c-2.792,-0 -3.42,1.282 -3.753,1.9Zm3.753,-0.421l0,9.507l-3.753,0l-0,-8.082c0.239,-0.33 0.894,-1.425 3.753,-1.425Z" style="fill:#fff;"/><path d="M43.396,53.008c-1.983,-0 -3.631,0.932 -4.325,2.368c-0.822,-1.461 -2.391,-2.368 -4.218,-2.368c-1.648,-0 -2.961,0.781 -3.604,2.015l-0,-1.712l-3.754,-0l0,13.033l3.754,0l-0,-7.867c-0,-1.387 1.055,-2.371 2.574,-2.371c1.365,0 2.343,1.059 2.343,2.572l0,7.691l3.599,0l0,-7.892c0,-1.387 1.082,-2.371 2.575,-2.371c1.39,0 2.369,1.059 2.369,2.572l-0,7.691l3.599,0l-0,-8.321c-0,-2.949 -2.134,-5.04 -4.912,-5.04Z" style="fill:#fff;fill-rule:nonzero;"/><path d="M60.469,53.008c-1.983,-0 -3.631,0.932 -4.325,2.368c-0.822,-1.461 -2.39,-2.368 -4.218,-2.368c-1.648,-0 -3.161,0.781 -3.804,2.015l-0.42,0.733l0.62,2.721c-0,-1.387 1.055,-2.371 2.574,-2.371c1.365,0 2.343,1.059 2.343,2.572l0,7.691l3.599,0l0,-7.892c0,-1.387 1.082,-2.371 2.575,-2.371c1.391,0 2.369,1.059 2.369,2.572l-0,7.691l3.599,0l0,-8.321c0,-2.949 -2.134,-5.04 -4.912,-5.04Z" style="fill:#fff;fill-rule:nonzero;"/><path d="M73.729,66.369c3.858,0 7.081,-3.06 7.081,-6.693c0,-3.633 -3.223,-6.668 -7.081,-6.668c-3.884,-0 -7.133,3.035 -7.133,6.668c0,3.633 3.249,6.693 7.133,6.693Zm-1.038,-3.041c-1.74,-0.536 -2.713,-2.658 -2.151,-4.63c0.562,-1.973 2.482,-3.178 4.222,-2.643c1.718,0.529 2.697,2.627 2.136,4.599c-0.562,1.972 -2.489,3.202 -4.207,2.674Z" style="fill:#fff;fill-rule:nonzero;"/><path d="M89.647,53.008c-1.725,-0 -3.219,0.756 -4.017,1.94l0,-1.637l-3.753,-0l-0,13.033l3.753,0l0,-7.792l0.026,0.076c-0,-1.412 1.21,-2.522 2.781,-2.522c1.493,0 2.523,1.11 2.523,2.724l-0,7.514l3.624,0l0,-8.296c0,-2.949 -2.056,-5.04 -4.937,-5.04Z" style="fill:#fff;fill-rule:nonzero;"/><path d="M102.012,66.647c3.268,-0 5.402,-1.638 5.402,-4.209c0,-2.85 -2.545,-3.607 -4.835,-4.187c-1.803,-0.48 -2.344,-0.681 -2.344,-1.388c0,-0.454 0.644,-0.782 1.571,-0.782c1.133,0 2.523,0.429 3.731,1.161l1.517,-2.622c-1.465,-0.957 -3.342,-1.612 -5.248,-1.612c-3.139,-0 -5.221,1.763 -5.196,4.234c0.026,2.573 2.134,3.304 4.861,3.96c1.365,0.353 2.344,0.606 2.344,1.413c-0,0.58 -0.721,0.984 -1.725,0.984c-1.778,-0 -3.269,-0.631 -4.451,-1.463l-1.62,2.546c1.594,1.259 3.856,1.965 5.993,1.965Z" style="fill:#fff;fill-rule:nonzero;"/></g><rect x="116.346" y="52.442" width="1.849" height="22.466" style="fill:#ffc431;"/><path d="M64.507,69.817l-0,2.487c-0,0.48 -0.171,0.89 -0.512,1.229c-0.339,0.339 -0.747,0.508 -1.226,0.508c-0.48,0 -0.889,-0.169 -1.228,-0.508c-0.339,-0.339 -0.509,-0.749 -0.509,-1.229l-0,-2.622l-0.348,-0l0,2.622c0,0.575 0.204,1.067 0.61,1.475c0.409,0.407 0.901,0.61 1.475,0.61c0.573,-0 1.064,-0.203 1.473,-0.61c0.406,-0.408 0.609,-0.9 0.609,-1.475l0,-2.769l-0.344,0.282Zm24.281,-0.306c-0.669,0 -1.242,0.238 -1.718,0.714c-0.474,0.474 -0.711,1.046 -0.711,1.715c-0,0.67 0.237,1.242 0.711,1.716c0.476,0.476 1.049,0.714 1.718,0.714c0.516,-0 0.984,-0.151 1.403,-0.452c0.196,-0.14 0.364,-0.301 0.506,-0.482c0.154,-0.198 -0.182,-0.319 -0.303,-0.172c-0.128,0.155 -0.278,0.291 -0.453,0.408c-0.349,0.233 -0.734,0.35 -1.153,0.35c-0.551,0 -1.028,-0.189 -1.431,-0.568c-0.398,-0.379 -0.613,-0.843 -0.644,-1.39l4.498,-0l0.007,-0.124c-0,-0.063 -0.005,-0.137 -0.013,-0.224c-0.057,-0.619 -0.316,-1.14 -0.777,-1.564c-0.463,-0.427 -1.01,-0.641 -1.64,-0.641Zm17.735,4.873l0.347,-0l0,-2.444c0,-0.669 -0.238,-1.241 -0.714,-1.715c-0.474,-0.476 -1.045,-0.714 -1.715,-0.714c-0.67,0 -1.243,0.238 -1.719,0.714c-0.474,0.474 -0.711,1.046 -0.711,1.715c0,0.67 0.237,1.243 0.711,1.719c0.476,0.474 1.049,0.711 1.719,0.711c0.434,-0 0.838,-0.109 1.213,-0.326c0.362,-0.212 0.652,-0.499 0.869,-0.859l-0,1.199Zm-8.986,-3.688c-0.217,-0.36 -0.507,-0.646 -0.869,-0.856c-0.375,-0.219 -0.779,-0.329 -1.213,-0.329c-0.67,0 -1.242,0.238 -1.718,0.714c-0.474,0.474 -0.711,1.046 -0.711,1.715c-0,0.67 0.237,1.243 0.711,1.719c0.476,0.474 1.048,0.711 1.718,0.711c0.67,-0 1.242,-0.237 1.716,-0.711c0.475,-0.476 0.713,-1.049 0.713,-1.719l0,-3.519l-0.347,0l-0,2.275Zm-24.911,2.95c-0.27,0.245 -0.589,0.367 -0.957,0.367c-0.396,-0 -0.734,-0.14 -1.014,-0.42c-0.28,-0.28 -0.42,-0.618 -0.42,-1.014l-0,-2.564l2.391,0l-0,-0.347l-2.391,-0l-0,-0.798l-0.351,-0l-0,3.709c-0,0.49 0.176,0.911 0.527,1.26c0.348,0.348 0.767,0.521 1.258,0.521c0.356,0 0.675,-0.091 0.957,-0.274l-0,-0.44Zm2.342,0.727l0.348,0l-0,-4.762l-0.348,0.316l0,4.446Zm24.87,0l0.347,0l0,-4.928l-0.347,0.271l-0,4.657Zm-32.644,0.01l0.347,-0l0,-5.965l-0.347,0l-0,5.965Zm-15.379,0.005l0,-2.874c0,-0.403 0.142,-0.747 0.427,-1.033c0.284,-0.285 0.627,-0.427 1.03,-0.427c0.402,0 0.746,0.142 1.033,0.427c0.284,0.286 0.426,0.63 0.426,1.033l0,2.874l0.348,0l-0,-2.874c-0,-0.403 0.142,-0.747 0.426,-1.033c0.284,-0.285 0.628,-0.427 1.03,-0.427c0.402,0 0.747,0.142 1.033,0.427c0.284,0.286 0.426,0.63 0.426,1.033l0,2.874l0.348,0l-0,-2.874c-0,-0.5 -0.177,-0.925 -0.531,-1.277c-0.351,-0.353 -0.777,-0.53 -1.276,-0.53c-0.354,-0 -0.679,0.097 -0.976,0.29c-0.289,0.188 -0.507,0.437 -0.654,0.749c-0.148,-0.312 -0.366,-0.561 -0.654,-0.749c-0.297,-0.193 -0.623,-0.29 -0.979,-0.29c-0.497,-0 -0.922,0.177 -1.273,0.53c-0.354,0.352 -0.531,0.777 -0.531,1.277l-0,2.874l0.347,0Zm26.191,-0.001l-0,-2.874c-0,-0.403 0.142,-0.747 0.426,-1.034c0.285,-0.284 0.628,-0.426 1.03,-0.426c0.403,0 0.747,0.142 1.033,0.426c0.285,0.287 0.427,0.631 0.427,1.034l-0,2.874l0.347,0l0,-2.874c0,-0.403 0.142,-0.747 0.427,-1.034c0.284,-0.284 0.627,-0.426 1.03,-0.426c0.402,0 0.746,0.142 1.033,0.426c0.284,0.287 0.426,0.631 0.426,1.034l0,2.874l0.348,0l-0,-2.874c-0,-0.5 -0.177,-0.925 -0.531,-1.277c-0.352,-0.354 -0.777,-0.53 -1.276,-0.53c-0.354,-0 -0.68,0.096 -0.976,0.29c-0.289,0.188 -0.507,0.437 -0.654,0.749c-0.148,-0.312 -0.366,-0.561 -0.654,-0.749c-0.297,-0.194 -0.624,-0.29 -0.98,-0.29c-0.497,-0 -0.921,0.176 -1.273,0.53c-0.354,0.352 -0.531,0.777 -0.531,1.277l0,2.874l0.348,0Zm28.517,-2.447c-0,0.575 -0.204,1.066 -0.61,1.473c-0.407,0.406 -0.897,0.609 -1.472,0.609c-0.575,0 -1.066,-0.203 -1.472,-0.609c-0.407,-0.407 -0.61,-0.898 -0.61,-1.473c-0,-0.574 0.203,-1.065 0.61,-1.472c0.406,-0.406 0.897,-0.609 1.472,-0.609c0.575,-0 1.065,0.203 1.472,0.609c0.406,0.407 0.61,0.898 0.61,1.472Zm-8.986,0c-0,0.575 -0.203,1.066 -0.61,1.473c-0.406,0.406 -0.897,0.609 -1.472,0.609c-0.575,0 -1.066,-0.203 -1.472,-0.609c-0.406,-0.407 -0.61,-0.898 -0.61,-1.473c0,-0.574 0.204,-1.065 0.61,-1.472c0.406,-0.406 0.897,-0.609 1.472,-0.609c0.575,-0 1.066,0.203 1.472,0.609c0.407,0.407 0.61,0.898 0.61,1.472Zm-10.818,-0.224c0.055,-0.524 0.279,-0.964 0.673,-1.32c0.396,-0.358 0.861,-0.537 1.396,-0.537c0.533,-0 0.999,0.179 1.397,0.537c0.391,0.356 0.616,0.796 0.673,1.32l-4.139,0Z" style="fill:#ffc431;fill-rule:nonzero;"/><clipPath id="_clip3"><path d="M64.507,69.817l-0,2.487c-0,0.48 -0.171,0.89 -0.512,1.229c-0.339,0.339 -0.747,0.508 -1.226,0.508c-0.48,0 -0.889,-0.169 -1.228,-0.508c-0.339,-0.339 -0.509,-0.749 -0.509,-1.229l-0,-2.622l-0.348,-0l0,2.622c0,0.575 0.204,1.067 0.61,1.475c0.409,0.407 0.901,0.61 1.475,0.61c0.573,-0 1.064,-0.203 1.473,-0.61c0.406,-0.408 0.609,-0.9 0.609,-1.475l0,-2.769l-0.344,0.282Zm24.281,-0.306c-0.669,0 -1.242,0.238 -1.718,0.714c-0.474,0.474 -0.711,1.046 -0.711,1.715c-0,0.67 0.237,1.242 0.711,1.716c0.476,0.476 1.049,0.714 1.718,0.714c0.516,-0 0.984,-0.151 1.403,-0.452c0.196,-0.14 0.364,-0.301 0.506,-0.482c0.154,-0.198 -0.182,-0.319 -0.303,-0.172c-0.128,0.155 -0.278,0.291 -0.453,0.408c-0.349,0.233 -0.734,0.35 -1.153,0.35c-0.551,0 -1.028,-0.189 -1.431,-0.568c-0.398,-0.379 -0.613,-0.843 -0.644,-1.39l4.498,-0l0.007,-0.124c-0,-0.063 -0.005,-0.137 -0.013,-0.224c-0.057,-0.619 -0.316,-1.14 -0.777,-1.564c-0.463,-0.427 -1.01,-0.641 -1.64,-0.641Zm17.735,4.873l0.347,-0l0,-2.444c0,-0.669 -0.238,-1.241 -0.714,-1.715c-0.474,-0.476 -1.045,-0.714 -1.715,-0.714c-0.67,0 -1.243,0.238 -1.719,0.714c-0.474,0.474 -0.711,1.046 -0.711,1.715c0,0.67 0.237,1.243 0.711,1.719c0.476,0.474 1.049,0.711 1.719,0.711c0.434,-0 0.838,-0.109 1.213,-0.326c0.362,-0.212 0.652,-0.499 0.869,-0.859l-0,1.199Zm-8.986,-3.688c-0.217,-0.36 -0.507,-0.646 -0.869,-0.856c-0.375,-0.219 -0.779,-0.329 -1.213,-0.329c-0.67,0 -1.242,0.238 -1.718,0.714c-0.474,0.474 -0.711,1.046 -0.711,1.715c-0,0.67 0.237,1.243 0.711,1.719c0.476,0.474 1.048,0.711 1.718,0.711c0.67,-0 1.242,-0.237 1.716,-0.711c0.475,-0.476 0.713,-1.049 0.713,-1.719l0,-3.519l-0.347,0l-0,2.275Zm-24.911,2.95c-0.27,0.245 -0.589,0.367 -0.957,0.367c-0.396,-0 -0.734,-0.14 -1.014,-0.42c-0.28,-0.28 -0.42,-0.618 -0.42,-1.014l-0,-2.564l2.391,0l-0,-0.347l-2.391,-0l-0,-0.798l-0.351,-0l-0,3.709c-0,0.49 0.176,0.911 0.527,1.26c0.348,0.348 0.767,0.521 1.258,0.521c0.356,0 0.675,-0.091 0.957,-0.274l-0,-0.44Zm2.342,0.727l0.348,0l-0,-4.762l-0.348,0.316l0,4.446Zm24.87,0l0.347,0l0,-4.928l-0.347,0.271l-0,4.657Zm-32.644,0.01l0.347,-0l0,-5.965l-0.347,0l-0,5.965Zm-15.379,0.005l0,-2.874c0,-0.403 0.142,-0.747 0.427,-1.033c0.284,-0.285 0.627,-0.427 1.03,-0.427c0.402,0 0.746,0.142 1.033,0.427c0.284,0.286 0.426,0.63 0.426,1.033l0,2.874l0.348,0l-0,-2.874c-0,-0.403 0.142,-0.747 0.426,-1.033c0.284,-0.285 0.628,-0.427 1.03,-0.427c0.402,0 0.747,0.142 1.033,0.427c0.284,0.286 0.426,0.63 0.426,1.033l0,2.874l0.348,0l-0,-2.874c-0,-0.5 -0.177,-0.925 -0.531,-1.277c-0.351,-0.353 -0.777,-0.53 -1.276,-0.53c-0.354,-0 -0.679,0.097 -0.976,0.29c-0.289,0.188 -0.507,0.437 -0.654,0.749c-0.148,-0.312 -0.366,-0.561 -0.654,-0.749c-0.297,-0.193 -0.623,-0.29 -0.979,-0.29c-0.497,-0 -0.922,0.177 -1.273,0.53c-0.354,0.352 -0.531,0.777 -0.531,1.277l-0,2.874l0.347,0Zm26.191,-0.001l-0,-2.874c-0,-0.403 0.142,-0.747 0.426,-1.034c0.285,-0.284 0.628,-0.426 1.03,-0.426c0.403,0 0.747,0.142 1.033,0.426c0.285,0.287 0.427,0.631 0.427,1.034l-0,2.874l0.347,0l0,-2.874c0,-0.403 0.142,-0.747 0.427,-1.034c0.284,-0.284 0.627,-0.426 1.03,-0.426c0.402,0 0.746,0.142 1.033,0.426c0.284,0.287 0.426,0.631 0.426,1.034l0,2.874l0.348,0l-0,-2.874c-0,-0.5 -0.177,-0.925 -0.531,-1.277c-0.352,-0.354 -0.777,-0.53 -1.276,-0.53c-0.354,-0 -0.68,0.096 -0.976,0.29c-0.289,0.188 -0.507,0.437 -0.654,0.749c-0.148,-0.312 -0.366,-0.561 -0.654,-0.749c-0.297,-0.194 -0.624,-0.29 -0.98,-0.29c-0.497,-0 -0.921,0.176 -1.273,0.53c-0.354,0.352 -0.531,0.777 -0.531,1.277l0,2.874l0.348,0Zm28.517,-2.447c-0,0.575 -0.204,1.066 -0.61,1.473c-0.407,0.406 -0.897,0.609 -1.472,0.609c-0.575,0 -1.066,-0.203 -1.472,-0.609c-0.407,-0.407 -0.61,-0.898 -0.61,-1.473c-0,-0.574 0.203,-1.065 0.61,-1.472c0.406,-0.406 0.897,-0.609 1.472,-0.609c0.575,-0 1.065,0.203 1.472,0.609c0.406,0.407 0.61,0.898 0.61,1.472Zm-8.986,0c-0,0.575 -0.203,1.066 -0.61,1.473c-0.406,0.406 -0.897,0.609 -1.472,0.609c-0.575,0 -1.066,-0.203 -1.472,-0.609c-0.406,-0.407 -0.61,-0.898 -0.61,-1.473c0,-0.574 0.204,-1.065 0.61,-1.472c0.406,-0.406 0.897,-0.609 1.472,-0.609c0.575,-0 1.066,0.203 1.472,0.609c0.407,0.407 0.61,0.898 0.61,1.472Zm-10.818,-0.224c0.055,-0.524 0.279,-0.964 0.673,-1.32c0.396,-0.358 0.861,-0.537 1.396,-0.537c0.533,-0 0.999,0.179 1.397,0.537c0.391,0.356 0.616,0.796 0.673,1.32l-4.139,0Z" clip-rule="nonzero"/></clipPath><g clip-path="url(#_clip3)"><path d="M125.004,75.145c-0,-0.491 -0.399,-0.89 -0.89,-0.89c-7.018,0 -53.347,0 -60.693,0c-0.541,0 -0.98,0.439 -0.98,0.981c-0,2.137 -0,7.024 -0,7.024l62.563,0c-0,0 -0,-5.029 -0,-7.115Z" style="fill:url(#_Linear4);"/></g><path d="M64.851,69.753l0.218,-0.218l0,2.769c0,0.635 -0.224,1.178 -0.673,1.629c-0.452,0.449 -0.994,0.674 -1.627,0.674c-0.634,-0 -1.178,-0.225 -1.629,-0.674c-0.449,-0.451 -0.674,-0.994 -0.674,-1.629l0,-2.404l0.222,-0.436l0.342,-0l0.002,0.218l-0.348,-0l0,2.622c0,0.575 0.204,1.067 0.61,1.475c0.409,0.407 0.901,0.61 1.475,0.61c0.573,-0 1.064,-0.203 1.473,-0.61c0.406,-0.408 0.609,-0.9 0.609,-1.475l0,-2.551Zm-3.819,0.147l0.218,-0.218l-0,2.622c-0,0.42 0.148,0.778 0.445,1.075c0.296,0.296 0.655,0.444 1.074,0.444c0.418,0 0.776,-0.148 1.072,-0.445c0.299,-0.296 0.448,-0.654 0.448,-1.074l-0,-2.09l0.218,-0.179l-0,2.269c-0,0.48 -0.171,0.89 -0.512,1.229c-0.339,0.339 -0.747,0.508 -1.226,0.508c-0.48,0 -0.889,-0.169 -1.228,-0.508c-0.339,-0.339 -0.509,-0.749 -0.509,-1.229l-0,-2.404Zm3.475,0.135l-0.138,-0.387l0.344,-0.282l0.078,0.218l-0.284,0.233l-0,0.218Zm33.377,-1.396l0.218,-0.218l0,3.519c0,0.73 -0.259,1.355 -0.777,1.873c-0.517,0.517 -1.14,0.775 -1.87,0.775c-0.73,-0 -1.354,-0.258 -1.873,-0.775c-0.516,-0.519 -0.774,-1.143 -0.774,-1.873c-0,-0.729 0.258,-1.353 0.774,-1.869c0.519,-0.519 1.143,-0.778 1.873,-0.778c0.473,0 0.914,0.12 1.323,0.358c0.201,0.117 0.381,0.255 0.541,0.414l-0,-1.426l0.222,-0.436l0.342,0l0.001,0.218l-0.347,0l-0,2.275c-0.217,-0.36 -0.507,-0.646 -0.869,-0.856c-0.375,-0.219 -0.779,-0.329 -1.213,-0.329c-0.67,0 -1.242,0.238 -1.718,0.714c-0.474,0.474 -0.711,1.046 -0.711,1.715c-0,0.67 0.237,1.243 0.711,1.719c0.476,0.474 1.048,0.711 1.718,0.711c0.67,-0 1.242,-0.237 1.716,-0.711c0.475,-0.476 0.713,-1.049 0.713,-1.719l0,-3.301Zm-0.347,3.301c-0,0.575 -0.203,1.066 -0.61,1.473c-0.406,0.406 -0.897,0.609 -1.472,0.609c-0.575,0 -1.066,-0.203 -1.472,-0.609c-0.406,-0.407 -0.61,-0.898 -0.61,-1.473c0,-0.574 0.204,-1.065 0.61,-1.472c0.406,-0.406 0.897,-0.609 1.472,-0.609c0.575,-0 1.066,0.203 1.472,0.609c0.407,0.407 0.61,0.898 0.61,1.472Zm-0.218,0c-0,-0.514 -0.182,-0.954 -0.546,-1.317c-0.364,-0.364 -0.803,-0.546 -1.318,-0.546c-0.515,-0 -0.954,0.182 -1.318,0.546c-0.364,0.363 -0.546,0.803 -0.546,1.317c0,0.515 0.182,0.955 0.546,1.318c0.364,0.364 0.803,0.546 1.318,0.546c0.515,0 0.954,-0.182 1.318,-0.546c0.364,-0.363 0.546,-0.803 0.546,-1.318Zm-24.693,1.924l0.218,-0.217l-0,0.438l-0.218,0.219l0.119,-0.036c-0.318,0.206 -0.676,0.31 -1.076,0.31c-0.551,0 -1.021,-0.195 -1.411,-0.584c-0.395,-0.393 -0.592,-0.865 -0.592,-1.415l-0,-3.491l0.223,-0.436l0.345,-0l0,0.218l-0.35,-0l-0,3.709c-0,0.49 0.176,0.911 0.527,1.26c0.348,0.348 0.767,0.521 1.258,0.521c0.356,0 0.675,-0.091 0.957,-0.274l-0,-0.222Zm-2.391,-4.776l0.218,-0.218l-0,0.58l2.173,-0l0.218,0.218l-0,0.347l-0.218,0.218l-2.173,0l-0,2.346c-0,0.335 0.118,0.622 0.356,0.86c0.237,0.237 0.524,0.356 0.86,0.356c0.312,-0 0.582,-0.103 0.811,-0.31l0.146,-0.133l-0,0.294c-0.27,0.245 -0.589,0.367 -0.957,0.367c-0.396,-0 -0.734,-0.14 -1.014,-0.42c-0.28,-0.28 -0.42,-0.618 -0.42,-1.014l-0,-2.564l2.391,0l-0,-0.347l-2.391,-0l-0,-0.58Zm5.081,0.741l0.218,-0.218l-0,4.981l-0.784,-0l0,-4.249l0.072,-0.578l0.347,-0.315l0.085,0.218l-0.286,0.259l0,4.446l0.348,0l-0,-4.544Zm24.869,-0.166l0.218,-0.218l0,5.147l-0.783,-0l-0,-4.488l0.084,-0.56l0.347,-0.271l0.075,0.218l-0.288,0.225l-0,4.657l0.347,0l0,-4.71Zm-32.644,-1.027l0.218,-0.218l0,6.183l-0.783,-0l-0,-5.965l0.219,-0.436l0.341,0l0.003,0.218l-0.345,0l-0,5.965l0.347,-0l0,-5.747Zm23.677,3.523l0.217,-0.204l-0.006,0.117l-0.218,0.21l-4.254,-0c0.068,0.391 0.251,0.729 0.55,1.013c0.36,0.34 0.787,0.509 1.281,0.509c0.375,0 0.719,-0.104 1.032,-0.313c0.156,-0.105 0.291,-0.227 0.405,-0.366l0.072,-0.067l0.079,-0.044c0.051,-0.021 0.106,-0.032 0.162,-0.033c0.11,-0.002 0.22,0.037 0.294,0.1l0.08,0.095l0.027,0.062l0.014,0.071l-0.001,0.072l-0.017,0.07l-0.029,0.063c-0.01,0.018 -0.022,0.037 -0.037,0.056c-0.154,0.197 -0.338,0.372 -0.551,0.525c-0.457,0.329 -0.967,0.493 -1.53,0.493c-0.729,-0 -1.354,-0.259 -1.872,-0.778c-0.517,-0.516 -0.775,-1.14 -0.775,-1.87c-0,-0.729 0.258,-1.353 0.775,-1.869c0.518,-0.519 1.143,-0.778 1.872,-0.778c0.687,0 1.282,0.233 1.788,0.699c0.502,0.461 0.784,1.029 0.846,1.704c0.009,0.094 0.014,0.176 0.014,0.244l-0.218,0.219Zm-2.43,-2.648c-0.669,0 -1.242,0.238 -1.718,0.714c-0.474,0.474 -0.711,1.046 -0.711,1.715c-0,0.67 0.237,1.242 0.711,1.716c0.476,0.476 1.049,0.714 1.718,0.714c0.516,-0 0.984,-0.151 1.403,-0.452c0.196,-0.14 0.364,-0.301 0.506,-0.482c0.154,-0.198 -0.182,-0.319 -0.303,-0.172c-0.128,0.155 -0.278,0.291 -0.453,0.408c-0.349,0.233 -0.734,0.35 -1.153,0.35c-0.551,0 -1.028,-0.189 -1.431,-0.568c-0.398,-0.379 -0.613,-0.843 -0.644,-1.39l4.498,-0l0.007,-0.124c-0,-0.063 -0.005,-0.137 -0.013,-0.224c-0.057,-0.619 -0.316,-1.14 -0.777,-1.564c-0.463,-0.427 -1.01,-0.641 -1.64,-0.641Zm-2.069,2.205c0.055,-0.524 0.279,-0.964 0.673,-1.32c0.396,-0.358 0.861,-0.537 1.396,-0.537c0.533,-0 0.999,0.179 1.397,0.537c0.391,0.356 0.616,0.796 0.673,1.32l-4.139,0Zm0.257,-0.218l3.624,0c-0.086,-0.364 -0.273,-0.678 -0.562,-0.941c-0.356,-0.32 -0.773,-0.48 -1.25,-0.48c-0.479,-0 -0.895,0.16 -1.25,0.48c-0.29,0.263 -0.478,0.576 -0.562,0.941Zm19.329,3.104l-0,-0.218l-0.001,-0.567c-0.159,0.159 -0.34,0.298 -0.541,0.416c-0.408,0.236 -0.849,0.355 -1.322,0.355c-0.73,-0 -1.354,-0.258 -1.873,-0.775c-0.516,-0.519 -0.775,-1.143 -0.775,-1.873c0,-0.729 0.259,-1.353 0.775,-1.869c0.519,-0.519 1.143,-0.778 1.873,-0.778c0.73,0 1.353,0.259 1.869,0.778c0.519,0.516 0.778,1.14 0.778,1.869l0,2.662l-0.783,-0Zm0.218,-0.218l0.347,-0l0,-2.444c0,-0.669 -0.238,-1.241 -0.714,-1.715c-0.474,-0.476 -1.045,-0.714 -1.715,-0.714c-0.67,0 -1.243,0.238 -1.719,0.714c-0.474,0.474 -0.711,1.046 -0.711,1.715c0,0.67 0.237,1.243 0.711,1.719c0.476,0.474 1.049,0.711 1.719,0.711c0.434,-0 0.838,-0.109 1.213,-0.326c0.362,-0.212 0.652,-0.499 0.869,-0.859l-0,1.199Zm-0,-2.444c-0,0.575 -0.204,1.066 -0.61,1.473c-0.407,0.406 -0.897,0.609 -1.472,0.609c-0.575,0 -1.066,-0.203 -1.472,-0.609c-0.407,-0.407 -0.61,-0.898 -0.61,-1.473c-0,-0.574 0.203,-1.065 0.61,-1.472c0.406,-0.406 0.897,-0.609 1.472,-0.609c0.575,-0 1.065,0.203 1.472,0.609c0.406,0.407 0.61,0.898 0.61,1.472Zm-0.218,0c-0,-0.514 -0.182,-0.954 -0.546,-1.317c-0.364,-0.364 -0.803,-0.546 -1.318,-0.546c-0.515,-0 -0.954,0.182 -1.318,0.546c-0.364,0.363 -0.546,0.803 -0.546,1.317c-0,0.515 0.182,0.955 0.546,1.318c0.364,0.364 0.803,0.546 1.318,0.546c0.515,0 0.954,-0.182 1.318,-0.546c0.364,-0.363 0.546,-0.803 0.546,-1.318Zm-48.529,2.666l0,-3.092c0,-0.343 -0.121,-0.635 -0.362,-0.879c-0.244,-0.242 -0.537,-0.363 -0.879,-0.363c-0.342,0 -0.634,0.121 -0.875,0.362c-0.242,0.244 -0.363,0.537 -0.363,0.88l-0,3.092l-0.784,0l0,-3.092c0,-0.343 -0.121,-0.635 -0.363,-0.879c-0.243,-0.242 -0.536,-0.363 -0.878,-0.363c-0.342,0 -0.634,0.121 -0.876,0.362c-0.242,0.244 -0.363,0.537 -0.363,0.88l0,3.092l-0.783,0l-0,-3.092c-0,-0.56 0.198,-1.037 0.594,-1.431c0.395,-0.396 0.87,-0.594 1.428,-0.594c0.399,-0 0.765,0.108 1.098,0.326c0.212,0.138 0.391,0.306 0.535,0.504c0.144,-0.198 0.322,-0.366 0.535,-0.504c0.333,-0.218 0.698,-0.326 1.095,-0.326c0.559,-0 1.036,0.198 1.43,0.594c0.397,0.394 0.595,0.871 0.595,1.431l-0,3.092l-0.784,0Zm-5.961,-0.218l0,-2.874c0,-0.403 0.142,-0.747 0.427,-1.033c0.284,-0.285 0.627,-0.427 1.03,-0.427c0.402,0 0.746,0.142 1.033,0.427c0.284,0.286 0.426,0.63 0.426,1.033l0,2.874l0.348,0l-0,-2.874c-0,-0.403 0.142,-0.747 0.426,-1.033c0.284,-0.285 0.628,-0.427 1.03,-0.427c0.402,0 0.747,0.142 1.033,0.427c0.284,0.286 0.426,0.63 0.426,1.033l0,2.874l0.348,0l-0,-2.874c-0,-0.5 -0.177,-0.925 -0.531,-1.277c-0.351,-0.353 -0.777,-0.53 -1.276,-0.53c-0.354,-0 -0.679,0.097 -0.976,0.29c-0.289,0.188 -0.507,0.437 -0.654,0.749c-0.148,-0.312 -0.366,-0.561 -0.654,-0.749c-0.297,-0.193 -0.623,-0.29 -0.979,-0.29c-0.497,-0 -0.922,0.177 -1.273,0.53c-0.354,0.352 -0.531,0.777 -0.531,1.277l-0,2.874l0.347,0Zm32.152,0.217l0,-3.092c0,-0.343 -0.121,-0.636 -0.362,-0.879c-0.244,-0.242 -0.537,-0.363 -0.879,-0.363c-0.342,0 -0.634,0.121 -0.876,0.362c-0.242,0.244 -0.363,0.537 -0.363,0.88l0,3.092l-0.783,0l-0,-3.092c-0,-0.343 -0.121,-0.636 -0.363,-0.879c-0.244,-0.242 -0.536,-0.363 -0.879,-0.363c-0.342,0 -0.633,0.121 -0.875,0.362c-0.242,0.244 -0.363,0.537 -0.363,0.88l-0,3.092l-0.784,0l0,-3.092c0,-0.56 0.199,-1.037 0.595,-1.431c0.394,-0.396 0.87,-0.595 1.427,-0.595c0.399,0 0.766,0.109 1.099,0.326c0.212,0.138 0.39,0.307 0.535,0.505c0.144,-0.198 0.322,-0.367 0.535,-0.505c0.333,-0.217 0.698,-0.326 1.095,-0.326c0.559,0 1.036,0.199 1.43,0.595c0.396,0.394 0.595,0.871 0.595,1.431l-0,3.092l-0.784,0Zm-5.961,-0.218l-0,-2.874c-0,-0.403 0.142,-0.747 0.426,-1.034c0.285,-0.284 0.628,-0.426 1.03,-0.426c0.403,0 0.747,0.142 1.033,0.426c0.285,0.287 0.427,0.631 0.427,1.034l-0,2.874l0.347,0l0,-2.874c0,-0.403 0.142,-0.747 0.427,-1.034c0.284,-0.284 0.627,-0.426 1.03,-0.426c0.402,0 0.746,0.142 1.033,0.426c0.284,0.287 0.426,0.631 0.426,1.034l0,2.874l0.348,0l-0,-2.874c-0,-0.5 -0.177,-0.925 -0.531,-1.277c-0.352,-0.354 -0.777,-0.53 -1.276,-0.53c-0.354,-0 -0.68,0.096 -0.976,0.29c-0.289,0.188 -0.507,0.437 -0.654,0.749c-0.148,-0.312 -0.366,-0.561 -0.654,-0.749c-0.297,-0.194 -0.624,-0.29 -0.98,-0.29c-0.497,-0 -0.921,0.176 -1.273,0.53c-0.354,0.352 -0.531,0.777 -0.531,1.277l0,2.874l0.348,0Z" style="fill:#ffc431;"/></g><defs><linearGradient id="_Linear4" x1="0" y1="0" x2="1" y2="0" gradientUnits="userSpaceOnUse" gradientTransform="matrix(3.8448e-16,-7.17052,3.83247,2.67989e-16,93.8941,81.568)"><stop offset="0" style="stop-color:#d44404;stop-opacity:1"/><stop offset="0.38" style="stop-color:#f98404;stop-opacity:1"/><stop offset="1" style="stop-color:#edbc5d;stop-opacity:1"/></linearGradient></defs></svg>